<svg xmlns="http://www.w3.org/2000/svg" width="61.521" height="70.302" viewBox="0 0 61.521 70.302">
  <path id="gnubash" d="M59.486,14.353,37.29,1.176a8.378,8.378,0,0,0-8.564,0L6.529,14.353A8.857,8.857,0,0,0,2.25,21.979V48.329a8.86,8.86,0,0,0,4.283,7.626l22.2,13.173a8.378,8.378,0,0,0,8.56,0l22.2-13.173a8.857,8.857,0,0,0,4.283-7.626V21.979A8.849,8.849,0,0,0,59.486,14.353ZM42.3,55.5l.037,1.892a.689.689,0,0,1-.326.58l-1.123.644c-.178.09-.326-.021-.328-.25l-.021-1.861a3.651,3.651,0,0,1-2.554.246c-.117-.047-.168-.219-.119-.416l.408-1.711a.7.7,0,0,1,.2-.353.476.476,0,0,1,.105-.076.21.21,0,0,1,.182-.018,3.132,3.132,0,0,0,2.349-.3,3.075,3.075,0,0,0,1.734-2.658c-.01-.961-.529-1.363-1.795-1.371-1.611,0-3.117-.314-3.14-2.687a6.889,6.889,0,0,1,2.6-5.273l-.021-1.91a.684.684,0,0,1,.326-.586L41.9,38.7c.178-.09.326.021.328.256l.018,1.914a3.517,3.517,0,0,1,2.127-.258c.139.035.2.223.141.441l-.422,1.693a.748.748,0,0,1-.191.34.47.47,0,0,1-.111.082.242.242,0,0,1-.168.025,2.821,2.821,0,0,0-2.047.332,2.573,2.573,0,0,0-1.515,2.279c.01.871.453,1.135,2,1.16,2.051.035,2.937.932,2.959,3A7.333,7.333,0,0,1,42.294,55.5Zm11.64-3.185a.439.439,0,0,1-.17.424l-5.613,3.41c-.146.086-.264.012-.264-.164V54.537a.4.4,0,0,1,.256-.357l5.527-3.308c.146-.086.264-.012.264.164v1.277ZM57.79,19.909l-21,12.968c-2.619,1.531-4.548,3.248-4.548,6.406V65.159c0,1.89.762,3.115,1.933,3.468a6.749,6.749,0,0,1-1.166.113,6.879,6.879,0,0,1-3.508-.967L7.306,54.6a7.306,7.306,0,0,1-3.519-6.275V21.979A7.3,7.3,0,0,1,7.306,15.7L29.5,2.526a6.861,6.861,0,0,1,7.013,0L58.714,15.7a7.263,7.263,0,0,1,3.41,5.074c-.738-1.57-2.4-2-4.334-.867Z" transform="translate(-2.25 -0.001)"/>
</svg>
