<svg xmlns="http://www.w3.org/2000/svg" width="234.01" height="200.015" viewBox="0 0 234.01 200.015">
  <g id="braces" transform="translate(-0.625 -1.25)">
    <path id="Path_3" data-name="Path 3" d="M19.241,102.595v-2.7c16.8-1.712,25.035-10.271,25.035-26.747V43.082c0-18.3,6.526-25.7,22.628-25.7h4.574V1.25H65.192c-26.961,0-39.666,12.678-39.666,39.318v25.49c0,18.3-6.286,24.34-24.9,24.34v21.719c18.616,0,24.9,6.045,24.9,24.34v25.49c0,26.64,12.678,39.318,39.639,39.318h6.286V185.136H66.878c-16.128,0-22.628-7.436-22.628-25.7v-30.09c0-16.449-8.211-25.035-25.035-26.747Zm196.805-2.7v2.728c-16.8,1.712-25.035,10.3-25.035,26.747v30.064c0,18.3-6.526,25.7-22.628,25.7h-4.574v16.128h6.286c26.961,0,39.639-12.678,39.639-39.318v-25.49c0-18.295,6.286-24.34,24.9-24.34V90.371c-18.616,0-24.9-6.045-24.9-24.34V40.568c.027-26.64-12.678-39.318-39.639-39.318h-6.286V17.378h4.574c16.128,0,22.628,7.436,22.628,25.7V73.146C191.011,89.6,199.222,98.181,216.046,99.893Z" transform="translate(0 0)"/>
  </g>
</svg>
