<svg xmlns="http://www.w3.org/2000/svg" width="82.974" height="74.018" viewBox="0 0 82.974 74.018">
  <path id="flask" d="M24.8,68.3c-3.16-2.489-6.534-4.875-8.837-8.228A66.776,66.776,0,0,1,4.826,40.1C3.284,35.413,2.751,30.388.767,25.887c-2.081-3.264.357-6.838,3.934-7.88,1.59-.3,4.4-1.807,1.014-.733C2.68,19.5,2.387,15.252,5.5,14.985A2.467,2.467,0,0,0,7.675,11.4C5.4,9.914,13.206,8.278,9.276,6.063,5.19,1.644,15,.794,12.584,5.807,12.005,9.66,19.443,5.1,17.719,9.55c1.752,2.139,6.569.486,6.447,3.487C26.724,13.21,27.6,15.36,30,15.526c2.489,1.125,7,2.005,7.839,4.81-2.464,1.952-8.178-4.031-8.45,1.374.744,7.986.553,16.212,3.473,23.814,1.383,4.605,4.734,8.228,7.758,11.817,2.895,3.513,6.815,5.981,10.812,8.067a44.543,44.543,0,0,0,11.107,3.437c1.549-1.187,4.287-5.589,6.7-3.734.115,2.088-4.8,4.365-.233,4.135,2.683-.809,4.543,2.074,6.751-.526,2.033,2.409,8.456-1.542,7.009,3.388-1.957,1.258-4.813.5-6.774,2.233-3.234-1.616-5.808,1.445-9.385,1.058a68.545,68.545,0,0,1-12.045,1c-6.61-.521-13.364-.744-19.651-3.042A39.9,39.9,0,0,1,24.8,68.3Zm5.582,2.42c3.457,1.494,6.843,3.07,10.632,3.547,6.016.832,12.23,2.123,18.266.947-2.731-1.233-5.559.484-8.281-.883-3.264.7-6.767-.18-10.084-.611-3.775-1.68-7.848-2.835-11.381-5.02-4.414-1.611,2.282,2.067,3.478,2.369,2.759,1.565-3.035-.807-3.854-1.454-2.309-1.3-2.607-1.028-.228.29.482.279.954.574,1.452.811Zm-6.583-4.653c3.354,1.24-.014-2.358-1.551-2.15-.68-1.18-2.6-1.927-1.245-2.558-2.436.844-2.551-3.215-3.7-2.639-2.575-.811-1-3.695-4.07-5.462-.279-1.867-3.049-3.485-3.934-6.3C8.9,45.517,6.167,41.377,7.85,45.227c1.431,3.706,3.953,6.88,6.05,10.051,1.625,3.017,3.549,6.175,6.518,8.055,1,.961,1.964,2.429,3.379,2.731ZM14.14,55.46C14.255,54.955,14.75,56.557,14.14,55.46ZM27.81,67.549C28.554,67.217,26.74,67.134,27.81,67.549Zm1.819.664C29.442,67.3,28.8,68.724,29.628,68.213Zm2.282.952C32.993,68.13,30.237,68.515,31.91,69.165Zm3.9,2.178C36.469,70.368,33.7,70.972,35.81,71.343Zm-7.5-5.23C30,65.023,26.136,66.1,28.315,66.113Zm1.708.85C29.974,66.39,29.414,67.222,30.022,66.964Zm8.539,5.331c1.376.864,8.021,1.9,3.858.355C41.726,72.795,34.708,70.665,38.562,72.295ZM25.007,61.736C24.873,61.158,22.877,61.1,25.007,61.736Zm3.976,2.316C30.02,63.329,26.837,63.5,28.983,64.053ZM32.325,66.1C33.812,65.541,29.916,65.539,32.325,66.1Zm-8.936-6.129c1.611,1.238,6.5.159,2.468-.738-1.832-.977-5.972-1.646-3.153.588Zm11.2,6.838C35.261,65.671,31.776,66.159,34.591,66.811Zm-3.4-2.708c3.941,1.118-3.312-2.489-.973-.408l.519.235.449.173Zm6.825,3.946C41.745,68.084,34.644,67.537,38.013,68.049ZM21.955,57.816C21.81,57.122,21.036,57.876,21.955,57.816ZM44.324,71.589C44.425,70.336,43.107,72.523,44.324,71.589Zm-16-9.874C28.1,61.056,27.155,61.688,28.321,61.715ZM22.308,57.38C24.452,57.253,19.376,56.435,22.308,57.38Zm-7.122-4.605C14.921,51.747,12.856,50.929,15.186,52.775ZM33.881,64.649C33.487,64.2,33.694,64.746,33.881,64.649Zm11.637,7.14C45.483,71.11,44.886,72.048,45.518,71.79ZM32.85,63.585C33.058,62.7,31.02,63.32,32.85,63.585Zm-8.669-5.5C25.772,57.91,21.626,57,24.182,58.081ZM38.848,67.2C41.33,66.212,36.428,66.712,38.848,67.2Zm-7.629-5.174c2.863.366-3.407-1.945-.625-.207Zm9.948,6.112c2.671-1.6,1.791,3.741,4.531.449,2.7-1.971-2.335,2.443,1,.355,2.409-1.616,5.972.761,8.217,1.537,1.618-.081,3.192,1.4,4.849.5,3.192-.864-6.244-1.279-3.768-2.8-2.923.846-5.082-1.016-6.518-2.886-3.277-.758-7.067-2.429-8.7-5.331-.664-1.09.966.152-.574-1.625-1.973-1.756-2.959-3.75-4.287-5.884-1.579-.844-1.763-3.328-1.927-.083.014-2.049-1.913-3.43-2.381-2.856-.007-1.973,2.061-.984.611-2.443-.311-2.047-1.339-4.181-1.646-6.49-.477-1.113-.069-3.494-1.636-.975-.569,2.662-.191-3.273.7-1.314,1.166-2-.415-1.763-.484-1.487.761-1.687.484-4.08-.2-3.167.406-1.789.638-6.576-.6-5.725.754-1.867,1.431-8.549-1.846-6a13.907,13.907,0,0,0-4.713,1.023c3.409,1.878-.343.678-1.729.38-.18,1.736-1.556.984-3.271,1,2.743.339-1.335,2.8-2.906,1.846-2.04.975,1.763,3.411.041,4.167.21,1.134-3.128-.41-2.87,2.213-1.98-.832-.27,3.112.724,1.777,3.37.913,2.372,2.994,2.459,4.967-.549,1.152-2.713-2.708-.484-2.528-1.756-2.858-1.943-1.035-3.407.3-.343.1,3.732,1.892,1.175,2.777,2.247.346,2.309,2.316,2.766,3.561,1.353,1.406,1.076-1.556,2.694.138-1.023-1.507-5.416-4.246-1.881-3.367-.016-1.517-.638-2.743.447-2.711,1.072-1.943-1.125,4.794,1.3,2.323.666-.3.832-1.945,2.04.157,1.747,1.722.629,2.966-1.835,1.394.44,1.5,3.3,2.028,2.764,4.372.569,2.056,1.367,1.3,2.061,1.182.546,2,.853.528.883-.424,2.492.535,1.908,2.008,2.69,3.042,1.719.774-2.462-5.262.491-1.819,3.1,2.805,1.166,3.976-1.625,3.526,1.763-.141,2.335,2.386,4.541,2.3,2.012.959,3.374,4.633-.094,3.1-1.2-1.083-5.46-2.42-1.98-.36a82.582,82.582,0,0,1,8.858,4.243c2.213,1.583,3.174,3.4,4.01,3.755-1.86.89-5.61-.712-2.823-1.2-1.738-.316-3.692-1.192-2.028.968,1.417,1.187,5.013,1.058,5.658,1.192-.549,1.2-1.487,1.3.021,1.394-1.68.9.539,1.037.694,1.549ZM37.73,58.426c-1.023-1.072-1.288-3.077-.184-1.332C38.112,57.322,39.362,60.367,37.73,58.426Zm11.195,7.11C49.563,65.5,48.945,66.021,48.924,65.537ZM36.112,55.8C36.073,54.183,36.483,57.048,36.112,55.8ZM35,54.305C33.712,51.818,36.623,55.011,35,54.305ZM21.515,45C22.269,44.8,21.886,46.291,21.515,45Zm10.731,5.815C32.71,49.071,32.793,52.279,32.247,50.813Zm-7.583-5.271C24.129,44.581,25.781,46.446,24.664,45.542Zm6.507,2.088c-1.217-2.731.864-1.494.27.449ZM19.948,40.144c-.546-.9-1.445-3.526-1.155-4.329.263,1.307,2.78,5.626,1.233,1.791-1.708-3.215,2.04,1.044,2.427,1.846.175.8-1.056-.219-.221,1.653-1.521-2.132-.9,1.175-2.286-.961Zm-3.466-2.388C16.622,35.673,17.277,39.183,16.481,37.757Zm1.558.535C18.784,36.719,19.3,40.483,18.039,38.291Zm-3.75-2.9c-1.293-1.279-2.226-2.464.06-.8.883.035-1.957-2.69.21-.864C16.841,34.143,15.686,37.468,14.29,35.387Zm1.971-.051C17.012,34.592,16.659,36.069,16.26,35.336Zm1.21.392C16.336,33.6,18.853,36.62,17.47,35.728Zm-2.409-2.307c-3.755-3.34,4.718,1.749.611.622Zm10.757,6.251c-1.625-.975-.429-6.859.124-2.835,1.579-.512-.088,2.077,1.09,2.054-.184,1.636-.712,2.224-1.21.781Zm3.976,2.351C29.958,40.248,30.133,43.233,29.794,42.023Zm-.691-.685C29.287,40.58,29.124,42.23,29.1,41.338ZM15.8,32.324c-2.409-3.328,7.009,3.365,1.544.844C16.774,33.018,16.085,32.965,15.8,32.324Zm7.661,4.063C23.232,33.587,23.968,36.851,23.461,36.387Zm5.815,3.732C29.725,38.522,29.31,41.175,29.276,40.119Zm-13.11-9.067c1.434-.3,5.94,2.519,1.8.809C17.507,31.349,16.528,31.584,16.166,31.052Zm12.308,6.136c.152-2.867.857-1.71.007.408ZM17.235,30.056c.585-.857-1.551-3.872.309-1.083.8.638,2.323,1.072.977,1.339C20.632,32.174,18.007,30.817,17.235,30.056Zm10.632,6.237C28.273,33.029,28.222,38.206,27.867,36.293ZM16.014,27.041C16.461,26.85,16.249,27.636,16.014,27.041Zm2.773,1.653C19.5,27.193,20.1,30.363,18.786,28.694Zm7.823,4.352C26.6,32.467,26.759,33.882,26.609,33.045Zm-.454-1C25.069,29.36,27.164,33.46,26.155,32.043Zm-.666-1.761C25.3,29.176,26.111,31.676,25.489,30.282Zm1.086-1.763c-.747-1.314.94-5.787,1.127-3.01-.786,2.162-.226,3.37.323.47,1.014-2.282-.219,4.5-1.452,2.542Zm1.113-6.652C28.013,21.468,27.761,22.349,27.688,21.867Zm-1.86,36.691C25.385,58.173,25.883,58.8,25.828,58.558ZM29.665,60.5c2.13.549,2.118-.332.191-.592-1.037-.968-4.308-1.987-1.381-.122.194.491.809.482,1.187.712Zm-7.578-5.031c1.175.876,4.425,2.487,1.673.332.931-1.079-1.777-1.653-.878-2.372-2.282-1.4-1.8-1.272-.2-1.231-2.745-1.224.394-1.134.244-1.763-1.058-.207-5.255-1.862-2.784.138-2.51-1.279-.6.477-1.355.29-2.57-.7,2.282,1.952-.408,1.3,1.468,1.166,3.962,2.987.622,1.233-.443.632,2.388,1.59,3.084,2.074Zm4.01,2.307C30.977,59.344,23.709,55.852,26.1,57.774ZM46.633,70.213C46.7,69.245,45.97,71.043,46.633,70.213Zm2.116.89c1.125-1.09.044,1.738,1.862-.265.021-1.434-.055-2.282-2.09-.539-.56.311-.809,1.636.228.807ZM15.239,50.06C14.893,48.7,12.819,48.711,15.239,50.06Zm2.254,1.48C16.657,50.15,14.506,50.281,17.493,51.54ZM30.32,59.275c1.252,1.111,5.748.816,1.521.138C31.212,58.482,27.86,58.708,30.32,59.275ZM47.945,70.16C49.874,68.542,46.078,70.88,47.945,70.16Zm4.01,2.752C51.967,72.394,51.126,73.141,51.955,72.912Zm0-.726C54.092,69.925,49.893,72.32,51.96,72.186ZM9.7,45.42c-1.819-2.593-1.132-3.762-2.886-5.877-.332-1.625-3.008-5.3-1.383-1.4,1.487,2.279,1.929,5.8,4.271,7.281ZM51.289,71.467C55.217,68.93,49.68,70.361,51.289,71.467Zm3,1.175C56.256,70.956,53.041,72.29,54.286,72.643ZM14.571,47.19C15.133,46.354,13.119,47.084,14.571,47.19ZM53.659,71.838c1.906-1.226-.436-1.037-.346.111ZM27.83,55.557C27.761,54.727,26.826,55.626,27.83,55.557Zm1.595.92C28.921,55.449,28.646,56.64,29.425,56.477ZM56.717,72.67c2.436-1.763-1.48-.339-.512.332Zm-.933-.449C57.768,70.555,53.686,72.958,55.784,72.221Zm4.771,3.174C61.889,74.5,58.932,75.109,60.555,75.395ZM15.8,46.589c1.789.4,7.143,4.4,3.983.277-1.618-.477-.645-4.435-2.3-3.734,1.106,1.848.913,2.639-1.413,1.473-2.925-1.427-1.641.705-1.072,1.293-.779.18,1.03.678.8.691ZM7.652,40.158c.318-1.325-2.95-7.286-1.542-2.987C6.614,38.07,6.564,39.778,7.652,40.158ZM22.6,49.375C21.681,48.6,22.557,49.265,22.6,49.375Zm2.268.526C24.869,48.5,22.363,49.334,24.869,49.9ZM44.513,62.289C44.14,61.328,43.033,62.269,44.513,62.289Zm.945.687C45.32,62.441,44.916,63.08,45.458,62.976Zm7.79,4.9C54,67.328,52.315,67.812,53.248,67.881ZM11.72,41.2C13.863,40.366,9.424,40.6,11.72,41.2Zm31.062,19.57C42.757,59.378,41.415,61.112,42.782,60.766ZM10.871,39.225C12.247,38.757,9.6,38.916,10.871,39.225Zm3.992,1.936C14.838,40.7,14.442,41.334,14.863,41.161ZM63.576,71.032c1.775-.36,5.8.9,6.454-.47-2.146-.051-7.433-1.514-7.682.35l.47.076.761.044ZM16.138,41.479C16.168,40.073,15.041,41.428,16.138,41.479Zm-10.5-7.288C5.158,31.51,3.819,33.783,5.635,34.191Zm2.5.629C8.168,33.96,5.845,34.046,8.138,34.82Zm1.431.7C9.154,35.184,9.244,35.943,9.569,35.521Zm9.005,5.774C19,40.907,17.572,41.009,18.574,41.294ZM8.617,33.937C8.375,31.916,5.713,33.633,8.617,33.937ZM3.48,30.6C3.411,29.671,2.982,30.957,3.48,30.6Zm.765-.579C4.121,28.92,3.588,30.164,4.245,30.026Zm4.218,2.519c1.789-.7-3.25-1.452-.364-.134ZM64.934,67.427C66.075,66.378,63.482,67.1,64.934,67.427Zm6.825,3.536C72.215,69.607,70.6,71.138,71.759,70.962ZM8.894,30.34C9.085,29.028,7.481,30.6,8.894,30.34Zm-6-4.02c-.323-1.848-.277-5.1,2.807-4-4.119.816,2.849,5.117,1.971,1.722,1.729.083,3.388-1.023,2.475.657,3.411-.378,5.776-3.333,9.072-2.923a35.909,35.909,0,0,0,8.138-1.627c2.275-.166,4.462-2.614,3.215-4.063A35.186,35.186,0,0,0,20.8,16.9c-3.8.788-7.246,2.289-11.082,2.934-3.734.5.751,1.383-.318,1.577-1.95.678,2.323,1.134-.251,1.846-1.59-.3-3.25-.85-2.57-2.524-3.577.461-6.723,1.945-3.9,5.587h.21Zm8.622-4.391c.839-3.091,4.494,2.542,1.376.408a1.968,1.968,0,0,0-1.376-.41Zm.164-1.5C12.89,19.53,12.323,20.933,11.68,20.429Zm1.537.028c.111-1.42,3.52.754.562.512Zm2.1-.846C16.087,18.712,15.541,20.41,15.32,19.61Zm.539-.36c1.279-1.535,7.244-.977,2.876-.15-1.169-.883-2.067.519-2.876.15Zm7.783-1.2C23.449,13.855,27.508,19.546,23.643,18.052Zm2.21-.014c.807-2.116,3.132-.846.373-.424C26.286,17.84,26.143,18.707,25.853,18.039ZM8.027,29.254C10.436,27.779,5.467,27.975,8.027,29.254Zm1.779.5C10.652,28.853,7.972,29.385,9.807,29.752ZM4.552,26.018C5.932,24.962,2.924,25.617,4.552,26.018ZM75.783,70.582C75.824,69.356,74.732,71.135,75.783,70.582Zm-7.235-4.939C68.755,64.23,67.614,65.767,68.548,65.643Zm9.231,5.416c1.927,0,5.836-.6,1.641-.6-.657.1-3.833.083-1.646.6Zm-66.4-42.179c1.558-.1,2.441-1.719-.3-1.625-4.252-.44,3.748,1.452-.546.913-.579.38.816.818.846.715Zm1.376.7C12.584,28.576,12.266,30.111,12.75,29.579Zm1.625-4.345C15.055,24.4,13.441,25.008,14.375,25.234ZM9.189,16.563c2.787-.947,6.594-2.008,7.906.468-1.339-1.611-.539-3.195.726-.839,1.784,2.381,2.681-1.083,1.514-1.885,1.325,1.646,2.83,2.422.89.1,2.109-2.538-4.229.337-5.67.3-.691.311-7.161,1.65-5.361,1.848Zm1.632-3.123c1.59-1.2,5.49.712,2.987-1.192C13.566,12.034,8.325,13.694,10.821,13.44Zm5.787.24c1.86.044-.8-2.5,1.413-1.346-.364-1.189-2.579-1.411-3.66-1.885-.611,1.086,1.245,3.243,2.247,3.229ZM11.837,8.425C12.48,7.554,10.71,8.868,11.837,8.425Zm2.365.567c2.994-.4-.761-1.288-.6-.035ZM9.788,5.535C7.679,2.783,13.75,6,11.609,3.115,9.8,1.681,8.073,4.733,9.788,5.535ZM36.842,20.106c.968-1.715-3.992-2.309-.65-.6C36.5,19.606,36.432,20.228,36.842,20.106Z" transform="translate(0 -2.386)"/>
</svg>
