<svg xmlns="http://www.w3.org/2000/svg" width="64.266" height="62.086" viewBox="0 0 64.266 62.086">
  <path id="git" d="M66.051,31.282,37.992,4.169a4.242,4.242,0,0,0-5.852,0L26.315,9.8l7.39,7.14A5.039,5.039,0,0,1,38.771,18.1,4.635,4.635,0,0,1,39.928,23l7.122,6.881a5.007,5.007,0,0,1,5.814,2.04,4.639,4.639,0,0,1-.841,5.921,5.055,5.055,0,0,1-6.168.452A4.665,4.665,0,0,1,44.1,32.56l-6.645-6.42V43.032a4.708,4.708,0,0,1,2.591,5.433,4.965,4.965,0,0,1-9.627-.335,4.733,4.733,0,0,1,2.988-5.239V25.849a4.843,4.843,0,0,1-2.682-2.582,4.607,4.607,0,0,1,.009-3.658l-7.283-7.042L4.211,31.151a3.905,3.905,0,0,0,0,5.656L32.272,63.913a4.242,4.242,0,0,0,5.852,0L66.053,36.931a3.9,3.9,0,0,0,0-5.656" transform="translate(-2.999 -2.998)" fill-rule="evenodd"/>
</svg>
