<svg xmlns="http://www.w3.org/2000/svg" xmlns:xlink="http://www.w3.org/1999/xlink" width="828.996" height="452" viewBox="0 0 828.996 452">
  <defs>
    <clipPath id="clip-path">
      <rect id="Rectangle_1" data-name="Rectangle 1" width="805" height="452" transform="translate(0 0.584)" fill="rgba(99,98,98,0.85)" stroke="#707070" stroke-width="1"/>
    </clipPath>
  </defs>
  <g id="Group_42" data-name="Group 42" transform="translate(-131.004 -281)">
    <path id="Path_109" data-name="Path 109" d="M1026.17,754.858H741.092a1,1,0,1,1,0-2H1026.17a1,1,0,1,1,0,2Z" transform="translate(-608.996 -93.142)" fill="#fff"/>
    <g id="Group_40" data-name="Group 40" transform="translate(0 -87)">
      <g id="Group_41" data-name="Group 41">
        <g id="Mask_Group_1" data-name="Mask Group 1" transform="translate(155 367.416)" clip-path="url(#clip-path)">
          <g id="undraw_code_thinking_1jeh" transform="translate(0 59.056)">
            <path id="Path_51" data-name="Path 51" d="M12.891.86,0,0,4.3,19.337l14.61-6.016Z" transform="matrix(0.469, -0.883, 0.883, 0.469, 134.162, 365.626)" fill="#ffdbac"/>
            <path id="Path_52" data-name="Path 52" d="M380.064,511.414l-43.05-41.82-24.6,19.065-55.37,69.7,11.89,8.819,59.47-51.462,39.975,52.275,38.13-19.065Z" transform="translate(-153.259 -272.789)" fill="#2f2e41"/>
            <path id="Path_53" data-name="Path 53" d="M380.064,511.414l-43.05-41.82-24.6,19.065-55.545,70.047,11.32,9.288L328.4,515.719l39.975,52.275,38.13-19.065Z" transform="translate(-153.259 -272.789)" opacity="0.1"/>
            <path id="Path_54" data-name="Path 54" d="M557.621,1007.3l-22.287-6.756-44.9-15.375-10.455-4.305-20.91,4.305s0-17.22,19.68-16.6l20.3,4.92,51.974,4.493,3.416,21.252Z" transform="translate(-749.663 -320.047) rotate(-30)" fill="#ffdbac"/>
            <path id="Path_55" data-name="Path 55" d="M346.156,650.506l-13.53,8.28H240.3L230.06,697.976l-14.15-3.309s-4.79-24.958-2.4-44.16S223.556,634.1,223.556,634.1l93.7-19.67Z" transform="translate(-75.686 -340.134)" fill="#2f2e41"/>
            <path id="Path_56" data-name="Path 56" d="M521.531,799.628l-9.225,1.845-2.01-2.345a12.427,12.427,0,0,1-1.68-13.645h0l25.83-33.825s7.38-16.605,19.065-9.84-9.84,17.835-9.84,17.835l-12.915,20.295,1.23,10.455Z" transform="translate(-338.391 -597.288)" fill="#ffdbac"/>
            <circle id="Ellipse_3" data-name="Ellipse 3" cx="23.985" cy="23.985" r="23.985" transform="translate(217.58 114.395)" fill="#ffdbac"/>
            <path id="Path_57" data-name="Path 57" d="M654.978,762.633l11.07,26.445,26.445-11.07s-8.61-20.91-8.61-21.525S654.978,762.633,654.978,762.633Z" transform="translate(-424.176 -606.726)" fill="#ffdbac"/>
            <path id="Path_58" data-name="Path 58" d="M657.474,864.612a137.8,137.8,0,0,1-6.758,42.623l-1.8,5.525-8.61,39.36-9.225,2.46-6.765-8.61-13.53-9.84-9.84-15.99-8.438-14.059-2.632-4.391-9.225-46.125L545.6,835.885l-11.685-1.845,2.46-6.765,10.455-14.145,10.455-1.23,3.075-2.46,2.46,1.23,9.84-5.535,3.075,1.23,17.983,1.673,10.922-2.288,15.707-8.431,6.433,1.052,22.14,18.45A137.686,137.686,0,0,1,657.474,864.612Z" transform="translate(-353.849 -630.47)" fill="#fff"/>
            <path id="Path_60" data-name="Path 60" d="M613.844,504.985l-23.37,15.375-34.882,31.451-2.632-4.391-7.38-36.9h1.845l19.065-35.055Z" transform="translate(-316.929 -276.2)" opacity="0.1"/>
            <path id="Path_61" data-name="Path 61" d="M540.064,466.66,521,501.715h-6.765l-4.3,12.3-9.84,2.461,26.445,28.9,37.515-33.825,23.37-15.375Z" transform="translate(-290.504 -271.085)" fill="#fff"/>
            <circle id="Ellipse_4" data-name="Ellipse 4" cx="4.305" cy="4.305" r="4.305" transform="translate(249.252 136.842)" fill="#ffb9b9"/>
            <rect id="Rectangle_23" class="rec_move_1" data-name="Rectangle 23" width="20.815" height="20.815" transform="translate(132.647 44.387)" fill="#fff"/>
            <path id="Path_63" class="rec_move_1" data-name="Path 63" d="M465.559,491.368H440.284V466.093h25.275Zm-24.176-1.1H464.46V467.191H441.383Z" transform="translate(-299.459 -438.06)" fill="#fff"/>
            <path id="Path_85" data-name="Path 85" d="M0,0H20.815V20.815H0Z" transform="translate(54.745 108.721) rotate(74.063)" fill="#fff"/>
            <path id="Path_64" data-name="Path 64" d="M226.723,697.909l-6.94-24.3,24.3-6.94,6.94,24.3Zm-5.582-23.548,6.336,22.19,22.19-6.336-6.336-22.19Z" transform="translate(-171.369 -554.573)" fill="#fff"/>
            <path id="Path_84" data-name="Path 84" d="M0,0H20.815V20.815H0Z" transform="translate(69.5 20.309) rotate(133.063)" fill="#fff"/>
            <path id="Path_65" data-name="Path 65" d="M200.047,465.85,217.3,447.384l18.466,17.258-17.258,18.466Zm17.31-16.913L201.6,465.8l16.86,15.757,15.757-16.86Z" transform="translate(-159.905 -427.191)" fill="#fff"/>
            <path id="Path_66" data-name="Path 66" d="M1247.612,403.19h-193.4V399.2h-87.7v3.986H772.31a13.082,13.082,0,0,0-13.082,13.082s0,97.663,0,163.871V681.1a13.083,13.083,0,0,0,13.083,13.083h475.3a13.083,13.083,0,0,0,13.083-13.082V416.272a13.082,13.082,0,0,0-13.082-13.082Z" transform="translate(-484.735 -399.203)" fill="#999"/>
            <rect id="Rectangle_26" data-name="Rectangle 26" width="466.389" height="263.091" transform="translate(292.032 27.106)" fill="#19e28c"/>
            <circle id="Ellipse_5" data-name="Ellipse 5" cx="4.783" cy="4.783" r="4.783" transform="translate(520.044 10.364)" fill="#19e28c"/>
            <path id="Path_67" data-name="Path 67" d="M1029.825,327.77H696.815V64.679Z" transform="translate(-404.783 -37.572)" opacity="0.1"/>
            <circle id="Ellipse_6" data-name="Ellipse 6" cx="44.831" cy="44.831" r="44.831" transform="translate(320.177 180.849)" fill="#f2f2f2"/>
            <path id="Path_68" data-name="Path 68" d="M921.722,863.5a55.765,55.765,0,1,1,55.765-55.765A55.765,55.765,0,0,1,921.722,863.5Zm0-110.8a55.036,55.036,0,1,0,55.036,55.036A55.036,55.036,0,0,0,921.722,752.7Z" transform="translate(-546.735 -604.128)" fill="#3f3d56"/>
            <rect id="Rectangle_27" data-name="Rectangle 27" width="43.566" height="9.103" transform="translate(633.65 168.993)" fill="#3f3d56"/>
            <rect id="Rectangle_28" data-name="Rectangle 28" width="148.904" height="3.901" transform="translate(580.98 98.118)" fill="#3f3d56"/>
            <rect id="Rectangle_29" data-name="Rectangle 29" width="148.904" height="3.901" transform="translate(580.98 110.472)" fill="#3f3d56"/>
            <rect id="Rectangle_30" data-name="Rectangle 30" width="148.904" height="3.901" transform="translate(580.98 122.827)" fill="#3f3d56"/>
            <rect id="Rectangle_31" data-name="Rectangle 31" width="148.904" height="3.901" transform="translate(580.98 135.181)" fill="#3f3d56"/>
            <rect id="Rectangle_32" data-name="Rectangle 32" width="148.904" height="3.901" transform="translate(580.98 147.536)" fill="#3f3d56"/>
            <rect id="Rectangle_33" data-name="Rectangle 33" width="18.207" height="18.207" transform="translate(711.677 32.444)" fill="#f2f2f2"/>
            <path id="Path_69" data-name="Path 69" d="M1835.359,509.585h-22.108V487.477h22.108Zm-21.147-.961H1834.4V488.438h-20.186Z" transform="translate(-1097.021 -450.482)" fill="#3f3d56"/>
            <path id="Path_70" data-name="Path 70" d="M1246.167,1074.779H1200.65v-3.28a.651.651,0,0,0-.65-.65h-15.606a.65.65,0,0,0-.65.65v3.28h-9.759v-3.28a.65.65,0,0,0-.65-.65h-15.605a.65.65,0,0,0-.65.65v3.28h-9.75v-3.28a.65.65,0,0,0-.65-.65h-15.606a.65.65,0,0,0-.65.65v3.28h-9.753v-3.28a.65.65,0,0,0-.65-.65h-15.606a.65.65,0,0,0-.65.65v3.28h-9.753v-3.28a.65.65,0,0,0-.65-.65h-15.606a.65.65,0,0,0-.65.65v3.28h-9.754v-3.28a.65.65,0,0,0-.65-.65h-15.606a.65.65,0,0,0-.65.65v3.28h-9.753v-3.28a.65.65,0,0,0-.65-.65H917.795a.65.65,0,0,0-.65.65v3.28h-9.753v-3.28a.65.65,0,0,0-.65-.65H891.135a.65.65,0,0,0-.65.65v3.28h-9.753v-3.28a.65.65,0,0,0-.65-.65H864.475a.65.65,0,0,0-.65.65v3.28h-9.753v-3.28a.65.65,0,0,0-.65-.65H837.815a.65.65,0,0,0-.65.65v3.28h-9.753v-3.28a.65.65,0,0,0-.65-.65H811.156a.65.65,0,0,0-.65.65v3.28h-9.753v-3.28a.65.65,0,0,0-.65-.65H784.5a.65.65,0,0,0-.65.65v3.28h-9.753v-3.28a.65.65,0,0,0-.65-.65H757.836a.65.65,0,0,0-.65.65v3.28H727.275a15.606,15.606,0,0,0-15.606,15.605v7.056a15.606,15.606,0,0,0,15.605,15.606h518.892a15.606,15.606,0,0,0,15.606-15.606v-7.056A15.606,15.606,0,0,0,1246.167,1074.779Z" transform="translate(-457.108 -788.365)" fill="#999"/>
            <path id="Path_110" data-name="Path 110" d="M12.891.86,0,0,4.3,19.337l14.61-6.016Z" transform="matrix(0.899, -0.438, 0.438, 0.899, 93.146, 290.525)" fill="#ffdbac"/>
            <g id="Group_43" data-name="Group 43">
              <path id="Path_59" data-name="Path 59" d="M31.367,24.983s3.849-6.523,2.223-7.284-8.529-3.8-8.529-3.8L14.936,10.546S.328-11.165.007,7.715,10.644,31.135,10.644,31.135s9.773,21.032,15.309,17.678S37.027,34.074,37.027,34.074,27.045,28.708,31.367,24.983Z" transform="matrix(0.469, -0.883, 0.883, 0.469, 105.869, 381.625)" fill="#fff"/>
              <path id="Path_113" data-name="Path 113" d="M31.367,24.983s3.849-6.523,2.223-7.284-8.529-3.8-8.529-3.8L14.936,10.546S.328-11.165.007,7.715,10.644,31.135,10.644,31.135s9.773,21.032,15.309,17.678S37.027,34.074,37.027,34.074,27.045,28.708,31.367,24.983Z" transform="matrix(0.469, -0.883, 0.883, 0.469, 105.869, 379.625)" fill="#8a88b2"/>
            </g>
            <g id="Group_44" data-name="Group 44">
              <path id="Path_111" data-name="Path 111" d="M31.367,24.983s3.849-6.523,2.223-7.284-8.529-3.8-8.529-3.8L14.936,10.546S.328-11.165.007,7.715,10.644,31.135,10.644,31.135s9.773,21.032,15.309,17.678S37.027,34.074,37.027,34.074,27.045,28.708,31.367,24.983Z" transform="matrix(0.899, -0.438, 0.438, 0.899, 60.852, 286.838)" fill="#fff"/>
              <path id="Path_114" data-name="Path 114" d="M31.367,24.983s3.849-6.523,2.223-7.284-8.529-3.8-8.529-3.8L14.936,10.546S.328-11.165.007,7.715,10.644,31.135,10.644,31.135s9.773,21.032,15.309,17.678S37.027,34.074,37.027,34.074,27.045,28.708,31.367,24.983Z" transform="translate(62.852 285.838) rotate(-26)" fill="#8a88b2"/>
            </g>
          </g>
        </g>
        <path id="Path_86" data-name="Path 86" d="M899.3,424.345c-4.027,4.3-11.5,1.99-12.029-3.88a7.106,7.106,0,0,1,.009-1.37c.271-2.6,1.77-4.961,1.411-7.707a4.045,4.045,0,0,0-.738-1.892c-3.209-4.3-10.741,1.925-13.769-1.971-1.857-2.389.326-6.151-1.1-8.822-1.881-3.525-7.451-1.786-10.944-3.716-3.887-2.148-3.654-8.122-1.1-11.756,3.12-4.432,8.591-6.8,13.993-7.137s10.768,1.122,15.811,3.091c5.731,2.237,11.413,5.329,14.94,10.378,4.289,6.139,4.7,14.392,2.557,21.571C907.041,415.5,902.588,420.836,899.3,424.345Z" transform="translate(-556.81 382.594) rotate(-14)" fill="#8d5524"/>
      </g>
    </g>
  </g>
</svg>
