<svg xmlns="http://www.w3.org/2000/svg" width="50.715" height="67.846" viewBox="0 0 50.715 67.846">
  <path id="apachemaven" d="M7.957,0A2.218,2.218,0,0,0,5.616,1.293a23.147,23.147,0,0,0-.961,6.434L8.115,9.4a43.143,43.143,0,0,1,.247-6.159,38.525,38.525,0,0,0-.017,6.078c.053.965.139,2.052.249,3.255a1.2,1.2,0,0,0,.021.19q.35,3.419.882,6.816c.156,1.04.345,2.131.543,3.283l-.028.028c.04.028.045.057.041.072l.083.452c.087.458.17.925.264,1.395l.309,1.566.158.816q.594,2.934,1.289,5.846c.254,1.08.528,2.2.814,3.353.281,1.095.56,2.211.871,3.37.271,1.023.565,2.079.859,3.157.009.051.034.1.041.158.3,1.063.611,2.16.933,3.279a.17.17,0,0,0,.028.072l.141.488c.217.741.447,1.508.68,2.277q-.425-.173-.835-.379-.266-.923-.528-1.847l-.179-.645-.009-.006-.013-.006c-.247-.852-.473-1.713-.724-2.589-.062-.243-.124-.488-.2-.744l-.886-3.33q-.422-1.628-.82-3.262c-.27-1.1-.526-2.2-.786-3.317q-.392-1.695-.746-3.4c-.241-1.123-.46-2.26-.684-3.377q-.121-.606-.226-1.216c-.128-.7-.247-1.395-.367-2.092-.011-.036-.013-.079-.024-.113l-2.957-1.51,2.968,1.5c-.162-1.095-.332-2.18-.494-3.257q-.235-1.694-.435-3.392t-.32-3.413q-.011-.1-.011-.2Q8.138,11,8.1,9.4L4.644,7.736c-.006.209-.023.424-.032.65Q4.557,9.7,4.546,11.015c-.009,1.04,0,2.126.017,3.264.024,1.046.068,2.137.124,3.245.057.95.119,1.911.2,2.889a1.069,1.069,0,0,0,.009.109l.013.009a1.128,1.128,0,0,1,.017.215c.094,1.04.185,2.094.309,3.157.119,1.078.254,2.158.415,3.249.136.922.283,1.836.435,2.755.028.181.068.373.1.554A66.264,66.264,0,0,0,7.733,37.02c.2.669.4,1.315.594,1.922.175.516.366,1.035.548,1.542.437,1.193.925,2.352,1.447,3.483l.017.009a.9.9,0,0,0,.053.143,35.716,35.716,0,0,0,2.135,3.944c.028.036.053.094.083.13a9.386,9.386,0,0,0-3.539-.275,12.994,12.994,0,0,1,5.7,3.322,6.035,6.035,0,0,1-2.7,1.351,5.934,5.934,0,0,0,2.957-.264,7.325,7.325,0,0,0-1.8,3.505,7.488,7.488,0,0,1,2.919-3.087c.22.727.458,1.477.692,2.226-2.056,4.014-4.155,8.328-6.291,12.873a1.583,1.583,0,0,0,1.216-.882c.367-.8,2.359-5.032,5.394-10.947,1.167,3.681,2.488,7.57,3.918,11.607a1.4,1.4,0,0,0,.217-1.312c-.277-.763-1.792-5.081-3.69-11.155.432-.837.9-1.724,1.368-2.621a9.9,9.9,0,0,1,1.14.449,6.435,6.435,0,0,1,1.312,2.354,4.282,4.282,0,0,0-.942-3.11c3.777.729,7.2.254,9.295-2.29q.283-.353.537-.727c-.92.859-1.928,1.142-3.713.773a10.319,10.319,0,0,0,5.757-3.453q.548-.654,1.042-1.351a8.366,8.366,0,0,1-8.2,1.387c-.036-.017-.077-.023-.124-.041a15.212,15.212,0,0,0,8.741-3.368,20.466,20.466,0,0,0,3.307-3.424A32.273,32.273,0,0,0,39.45,36.3c.661-1.112,1.323-2.331,1.975-3.658a7.915,7.915,0,0,1-2.086.394l-.407.021c-.136.009-.269,0-.415.006a9.269,9.269,0,0,0,5.637-4.088,8.622,8.622,0,0,1-3.025.831,5.081,5.081,0,0,1-.514.021c-.04-.006-.079,0-.134-.009a9.639,9.639,0,0,0,2.29-.871,9.556,9.556,0,0,0,1.012-.669c.124-.1.247-.2.367-.3a6.737,6.737,0,0,0,.792-.81,3.314,3.314,0,0,0,.226-.277c.1-.143.2-.277.29-.413q.565-.806,1.061-1.657.2-.338.384-.684c.04-.085.09-.162.13-.249.113-.237.226-.452.311-.643.119-.277.205-.505.258-.673a1.462,1.462,0,0,1-.3.141,10.163,10.163,0,0,1-3.066.577.039.039,0,0,0-.04.006l-.187.006a8.167,8.167,0,0,0,4.016-2.318,39.264,39.264,0,0,0,3.264-4.035,35.005,35.005,0,0,0,1.951-3.03,18.51,18.51,0,0,0,.848-1.675q.262-.628.481-1.272-2.092.043-4.184,0c1.4.028,2.874.021,4.2-.013,1.41-4.2.171-6.394.171-6.394S53.269,1.138,50.8,2.16a26.012,26.012,0,0,0-5.885,4.416l1.453,4.093a49.125,49.125,0,0,1,5.09-4.76,43.94,43.94,0,0,0-4.84,4.879c-.724.82-1.521,1.764-2.386,2.819a1.216,1.216,0,0,0-.136.17q-2.436,3.031-4.708,6.189c-.7.961-1.41,1.986-2.169,3.074h-.041a.093.093,0,0,1-.028.09c-.1.143-.187.283-.29.424-.29.443-.6.882-.893,1.338l-1,1.5c-.17.254-.345.514-.516.784-.52.8-1.042,1.619-1.583,2.467q-1.028,1.621-2.024,3.262-1.015,1.665-2.007,3.345c-.648,1.1-1.31,2.228-1.979,3.4q-.89,1.563-1.819,3.226c-.034.051-.057.113-.09.162q-.9,1.642-1.853,3.385a.216.216,0,0,0-.04.073c-.09.175-.185.339-.275.511-.481.9-.978,1.815-1.47,2.765,0,.013-.013.028-.017.04-.073.136-.143.26-.205.4-.328.622-.626,1.216-1.268,2.459a3.816,3.816,0,0,0-.65-.509c.335-.633.614-1.187.965-1.847.13-.249.275-.5.407-.761l.113-.211q.746-1.379,1.543-2.834c.128-.222.237-.435.367-.66V45.84l-.006-.017c.475-.876.978-1.753,1.47-2.657.147-.247.29-.494.435-.756.633-1.118,1.283-2.243,1.934-3.385q.954-1.647,1.934-3.279c.656-1.1,1.329-2.192,2-3.29.69-1.119,1.385-2.228,2.1-3.33.7-1.095,1.421-2.182,2.131-3.262.258-.39.516-.769.79-1.159.447-.661.9-1.317,1.363-1.979.021-.034.051-.072.072-.107L35.56,18.925l1.238,3.7c.739-1.006,1.464-2.015,2.188-3.01q1.179-1.58,2.346-3.081c.808-1.037,1.628-2.03,2.454-3,.051-.062.1-.122.143-.17.81-.942,1.613-1.843,2.425-2.7L44.9,6.579c-.17.164-.356.322-.543.5Q43.268,8.09,42.214,9.14c-.835.831-1.69,1.713-2.578,2.644-.81.863-1.641,1.775-2.48,2.714-.707.808-1.421,1.628-2.137,2.48-.034.034-.051.06-.083.1l.009.021a2.054,2.054,0,0,1-.158.185c-.752.914-1.519,1.836-2.261,2.785q-1.149,1.454-2.248,2.947-.931,1.275-1.841,2.565l-.36.526a74.5,74.5,0,0,0-3.963,6.509q-.537,1-1.048,2.022c-.269.554-.526,1.119-.784,1.673q-.89,1.965-1.6,3.956l.006.017a1.018,1.018,0,0,0-.073.162q-.455,1.286-.825,2.584a7.259,7.259,0,0,1-1.364,1.3c-.119-.147-.249-.277-.373-.415a14.547,14.547,0,0,0,2.337-6.264,18.1,18.1,0,0,0-.041-4.206,29.157,29.157,0,0,0-.675-3.6q-.444-1.784-1.029-3.528a7.01,7.01,0,0,1-1.069,1.543l-.247.264c-.079.09-.166.17-.254.266a8.185,8.185,0,0,0,1-6.076,7.7,7.7,0,0,1-1.385,2.4q-.148.171-.311.328c-.028.023-.049.051-.085.079a8.673,8.673,0,0,0,.9-1.973,3.938,3.938,0,0,0,.1-.409q.069-.317.113-.639l.049-.413a5.957,5.957,0,0,0-.009-1c-.009-.109-.009-.211-.028-.315-.024-.156-.045-.3-.073-.443q-.145-.858-.36-1.7-.086-.335-.185-.667c-.028-.079-.041-.158-.073-.237-.073-.222-.136-.424-.2-.594a5.886,5.886,0,0,0-.254-.584,1.3,1.3,0,0,1-.1.281,9.063,9.063,0,0,1-1.575,2.261.042.042,0,0,0-.021.028l-.113.119A7.219,7.219,0,0,0,15.55,14.88q-.012-.542-.053-1.084a34.719,34.719,0,0,0-.4-3.483,30.123,30.123,0,0,0-.66-3.119,16.549,16.549,0,0,0-.509-1.583q-.222-.559-.481-1.1C12.229,5.767,10.767,7.2,9.506,8.322c1.257-1.131,2.725-2.557,3.946-3.828C11.743.965,9.6.351,9.6.351A5.558,5.558,0,0,0,7.957,0Zm9.555,44.613.09.237c-.17.094-.332.192-.509.277-.034.011-.06.032-.1.051A6.916,6.916,0,0,0,17.511,44.617ZM15.8,49.187a8.389,8.389,0,0,0,1.012.933l.2.643a5.13,5.13,0,0,0-.692.17c-.028-.107-.057-.19-.087-.294-.073-.237-.139-.484-.217-.733l-.062-.2-.151-.52Zm.752,2.5a6.572,6.572,0,0,1,.758.028l.2.648a2.193,2.193,0,0,1,.7-.011c-.3.573-.6,1.167-.908,1.755-.247-.8-.488-1.572-.744-2.42Z" transform="translate(-4.542)"/>
</svg>
