<svg xmlns="http://www.w3.org/2000/svg" width="193.647" height="218.373" viewBox="0 0 193.647 218.373">
  <path id="nodejs" d="M98.848,218.373a16.765,16.765,0,0,1-8.389-2.244L63.745,200.321c-3.985-2.226-2.038-3.021-.728-3.488a53.453,53.453,0,0,0,12.083-5.5,2.015,2.015,0,0,1,1.984.158l20.527,12.18a2.639,2.639,0,0,0,2.475,0l80.021-46.185a2.523,2.523,0,0,0,1.219-2.166V62.977a2.572,2.572,0,0,0-1.25-2.2L100.086,14.626a2.529,2.529,0,0,0-2.469,0L17.663,60.782a2.584,2.584,0,0,0-1.268,2.19v92.353a2.457,2.457,0,0,0,1.268,2.135l21.916,12.666c11.889,5.951,19.18-1.055,19.18-8.1V70.857a2.3,2.3,0,0,1,2.329-2.305H71.23a2.316,2.316,0,0,1,2.323,2.305v91.182c0,15.88-8.644,24.973-23.693,24.973-4.622,0-8.274,0-18.434-5.016l-21-12.071A16.887,16.887,0,0,1,2.037,155.33V62.977a16.881,16.881,0,0,1,8.389-14.588L90.447,2.149a17.518,17.518,0,0,1,16.815,0l80.015,46.24a16.893,16.893,0,0,1,8.407,14.588V155.33a16.924,16.924,0,0,1-8.407,14.594l-80.015,46.2a16.728,16.728,0,0,1-8.419,2.244Zm64.614-91.055c0-17.288-11.683-21.892-36.28-25.137-24.846-3.282-27.375-4.986-27.375-10.8,0-4.8,2.135-11.222,20.545-11.222,16.438,0,22.5,3.542,24.991,14.619a2.311,2.311,0,0,0,2.244,1.808h10.385a2.366,2.366,0,0,0,1.692-.734,2.341,2.341,0,0,0,.613-1.783c-1.607-19.089-14.3-27.988-39.925-27.988-22.82,0-36.432,9.627-36.432,25.78,0,17.518,13.539,22.353,35.443,24.518,26.2,2.566,28.237,6.393,28.237,11.543,0,8.941-7.176,12.757-24.039,12.757-21.17,0-25.828-5.314-27.4-15.85a2.323,2.323,0,0,0-2.305-1.959H83.508a2.293,2.293,0,0,0-2.311,2.305c0,13.484,7.334,29.553,42.352,29.553,25.367.012,39.907-9.972,39.907-27.412Z" transform="translate(-2.037 0)"/>
</svg>
