<svg xmlns="http://www.w3.org/2000/svg" width="30.858" height="36" viewBox="0 0 30.858 36">
  <path id="database" d="M15.429,15.429a43.528,43.528,0,0,0,8.9-.864,17.531,17.531,0,0,0,6.529-2.551v3.415q0,1.386-2.069,2.571a18.664,18.664,0,0,1-5.625,1.878,40.467,40.467,0,0,1-7.734.693A40.467,40.467,0,0,1,7.7,19.878,18.692,18.692,0,0,1,2.069,18Q0,16.815,0,15.429V12.013a17.518,17.518,0,0,0,6.529,2.551,43.613,43.613,0,0,0,8.9.864Zm0,15.429a43.528,43.528,0,0,0,8.9-.864,17.531,17.531,0,0,0,6.529-2.551v3.415q0,1.386-2.069,2.571a18.664,18.664,0,0,1-5.625,1.878A40.467,40.467,0,0,1,15.43,36,40.467,40.467,0,0,1,7.7,35.307a18.664,18.664,0,0,1-5.625-1.878Q0,32.244,0,30.857V27.442a17.518,17.518,0,0,0,6.529,2.551,43.612,43.612,0,0,0,8.9.864Zm0-7.714a43.528,43.528,0,0,0,8.9-.864,17.531,17.531,0,0,0,6.529-2.551v3.415q0,1.386-2.069,2.571a18.664,18.664,0,0,1-5.625,1.878,40.467,40.467,0,0,1-7.734.693A40.467,40.467,0,0,1,7.7,27.593a18.664,18.664,0,0,1-5.625-1.878Q0,24.53,0,23.143V19.728a17.518,17.518,0,0,0,6.529,2.551,43.612,43.612,0,0,0,8.9.864ZM15.429,0a40.457,40.457,0,0,1,7.734.693,18.677,18.677,0,0,1,5.625,1.878q2.07,1.185,2.069,2.571V7.713q0,1.386-2.069,2.571a18.664,18.664,0,0,1-5.625,1.878,40.569,40.569,0,0,1-7.734.695,40.253,40.253,0,0,1-7.734-.693,18.753,18.753,0,0,1-5.626-1.878Q0,9.1,0,7.714V5.143Q0,3.757,2.069,2.572A18.664,18.664,0,0,1,7.694.694,40.524,40.524,0,0,1,15.429,0Z"/>
</svg>
